<svg width="47" height="24" viewBox="0 0 47 24" fill="none" xmlns="http://www.w3.org/2000/svg">
<path d="M1.46641 18.6141C1.25628 18.2819 0.976099 17.7513 0.803046 17.3584C-0.206431 15.0576 -0.251755 12.6757 0.59703 10.3911C1.53234 7.88373 3.32056 5.96774 5.63205 4.98746C8.53687 3.76009 11.7466 3.99909 14.5319 5.62342C16.2995 6.6199 17.5521 8.15918 18.5039 10.3385C18.6234 10.618 18.7305 10.9137 18.8377 11.1689L1.46641 18.6141ZM7.26782 8.68577C5.20354 9.55668 4.1405 11.4605 4.363 13.6884L13.0981 9.9901C11.5941 8.2564 9.64112 7.68119 7.26782 8.68577V8.68577ZM14.1858 16.7305C14.1817 16.7305 14.1817 16.7346 14.1817 16.7346L14.0004 16.613C13.4771 17.4434 12.6654 18.1199 11.6395 18.5574C9.68644 19.3918 7.87762 19.1771 6.5756 18.0551L6.45611 18.2333C6.45611 18.2333 6.45611 18.2293 6.45199 18.2293L4.23526 21.4901C4.78739 21.8668 5.37659 22.1828 5.99464 22.438C8.44211 23.4385 10.9473 23.3899 13.4153 22.3367C15.1994 21.5752 16.6003 20.4167 17.5562 18.9463L14.1858 16.7305ZM24.9069 0.191406V18.3143L27.7746 19.4566L26.1471 23.1914L22.9827 21.8952C22.274 21.5914 21.7878 21.1296 21.4252 20.607C21.075 20.0764 20.8154 19.3432 20.8154 18.3629V0.191406H24.9069ZM32.3317 13.7006C32.3317 12.1572 33.028 10.7719 34.124 9.83213L31.1821 6.60775C29.1879 8.34146 27.9312 10.8732 27.9312 13.6925C27.9271 16.5158 29.1838 19.0516 31.1739 20.7853L34.1117 17.5609C33.0198 16.6171 32.3317 15.2398 32.3317 13.7006V13.7006ZM37.5562 18.8409C36.9794 18.8409 36.419 18.7437 35.8999 18.5736L34.4948 22.677C35.4549 22.9929 36.4808 23.1671 37.5521 23.1671C42.2081 23.1712 46.0935 19.9225 46.9959 15.6085L42.6778 14.7416C42.1875 17.087 40.082 18.845 37.5562 18.8409V18.8409ZM37.5686 4.23403C36.5014 4.23403 35.4755 4.40416 34.5154 4.71606L35.9081 8.8235C36.4314 8.65337 36.9876 8.5602 37.5645 8.5602C40.0944 8.56425 42.204 10.3304 42.6819 12.6798L47 11.821C46.1141 7.49891 42.2287 4.23808 37.5686 4.23403V4.23403Z" fill="white"/>
</svg>
